<svg width="1137" height="1035" xmlns="http://www.w3.org/2000/svg" xmlns:xlink="http://www.w3.org/1999/xlink" xml:space="preserve" overflow="hidden"><g transform="translate(-2928 -60)"><g><g><g><path d="M114.062 324.394C123.187 333.519 123.187 347.662 114.062 356.787L75.2812 369.562 68.4375 362.719 81.2125 323.937C90.7937 315.269 104.937 315.269 114.062 324.394ZM293.369 86.2312 65.2437 314.812 36.5 401.5 123.644 372.756 351.769 144.631" transform="matrix(1 0 0 1 3627 71.9998)"/><path d="M396.481 73.9125 364.087 41.5187C356.787 34.2187 345.381 34.2187 338.081 41.5187L306.144 73.4562 364.087 131.4 396.025 99.4625C403.781 92.6187 403.781 81.2125 396.481 73.9125Z" transform="matrix(1 0 0 1 3627 71.9998)"/></g></g></g><g><g><g><path d="M3309.43 710.962 3476.62 543.762 3439.18 506.317 3309.43 636.071 3252.82 579.467 3215.38 616.912 3309.43 710.962ZM3346 1025.33C3252.53 945.797 3182.72 871.921 3136.56 803.706 3090.41 735.491 3067.33 672.355 3067.33 614.3 3067.33 527.217 3095.35 457.84 3151.37 406.171 3207.39 354.501 3272.27 328.667 3346 328.667 3419.73 328.667 3484.61 354.501 3540.63 406.171 3596.65 457.84 3624.67 527.217 3624.67 614.3 3624.67 672.355 3601.59 735.491 3555.44 803.706 3509.28 871.921 3439.47 945.797 3346 1025.33Z"/></g></g></g></g></svg>