<svg width="886" height="855" xmlns="http://www.w3.org/2000/svg" xmlns:xlink="http://www.w3.org/1999/xlink" xml:space="preserve" overflow="hidden"><g transform="translate(-1690 -1282)"><g><g><g><path d="M559.442 163.046C541.492 163.046 526.533 148.088 526.533 130.138 526.533 112.188 541.492 97.2292 559.442 97.2292 577.392 97.2292 592.35 112.188 592.35 130.138L592.35 130.138C592.35 148.088 577.392 163.046 559.442 163.046 559.442 163.046 559.442 163.046 559.442 163.046ZM559.442 52.3542C534.013 52.3542 510.079 65.0688 495.869 86.0104 481.658 106.952 478.667 133.877 487.642 157.81L522.794 234.846 552.711 298.419C554.954 302.158 559.442 303.654 562.433 301.41 563.929 300.663 564.677 299.915 565.425 298.419L595.342 234.846 630.494 157.81C639.469 133.877 636.477 106.952 622.267 86.0104 608.804 65.0688 584.871 52.3542 559.442 52.3542Z" transform="matrix(-1 0 0 1 2408 1419)"/><path d="M178.004 462.213C155.567 462.213 136.869 443.515 136.869 421.077 136.869 398.64 155.567 379.942 178.004 379.942 200.442 379.942 219.14 398.64 219.14 421.077 219.14 421.077 219.14 421.077 219.14 421.077 219.14 443.515 200.442 462.213 178.004 462.213 178.004 462.213 178.004 462.213 178.004 462.213L178.004 462.213ZM178.004 325.344C146.592 325.344 116.675 341.05 98.725 367.227 80.775 393.404 77.0354 427.06 89.0021 456.229L132.381 551.963 169.777 630.494C172.021 634.981 178.004 636.477 182.492 634.233 183.988 633.485 185.483 631.99 186.231 630.494L223.627 551.963 267.006 456.229C278.225 427.06 274.485 393.404 257.283 367.227 239.333 341.05 209.417 325.344 178.004 325.344L178.004 325.344Z" transform="matrix(-1 0 0 1 2408 1419)"/><path d="M282.713 635.729 263.267 635.729C254.292 635.729 246.065 635.729 237.838 635.729L237.838 590.854C245.317 590.854 254.292 590.854 263.267 590.854L282.713 590.854 282.713 635.729Z" transform="matrix(-1 0 0 1 2408 1419)"/><path d="M313.377 635.729 313.377 590.854C329.831 590.854 344.042 590.854 357.504 590.106L359 634.981C344.79 635.729 329.831 635.729 313.377 635.729Z" transform="matrix(-1 0 0 1 2408 1419)"/><path d="M388.917 633.485 386.673 588.61C402.379 587.863 417.338 587.115 430.052 585.619L434.54 630.494C421.077 631.99 405.371 632.738 388.917 633.485L388.917 633.485Z" transform="matrix(-1 0 0 1 2408 1419)"/><path d="M465.952 626.754 459.221 582.627C473.431 580.383 486.894 578.14 500.356 574.4L512.323 617.779C496.617 621.519 481.658 624.51 465.952 626.754Z" transform="matrix(-1 0 0 1 2408 1419)"/><path d="M543.735 606.56 525.786 565.425C535.508 562.433 543.735 555.702 549.719 547.475L589.358 569.165C578.14 586.367 562.433 599.081 543.735 606.56L543.735 606.56Z" transform="matrix(-1 0 0 1 2408 1419)"/><path d="M550.467 532.517C548.971 522.794 544.483 513.071 537.752 506.34L569.165 474.927C583.375 489.138 592.35 507.088 594.594 527.281L550.467 532.517Z" transform="matrix(-1 0 0 1 2408 1419)"/><path d="M519.054 492.877C507.088 486.894 494.373 481.658 481.658 477.919L494.373 435.288C510.079 439.775 525.786 445.758 539.996 453.238L519.054 492.877Z" transform="matrix(-1 0 0 1 2408 1419)"/><path d="M453.238 470.44 441.271 467.448C430.8 464.456 419.581 462.213 409.11 459.221L421.077 415.842C430.8 418.833 441.271 421.077 451.742 424.069L463.708 427.06 453.238 470.44Z" transform="matrix(-1 0 0 1 2408 1419)"/><path d="M378.446 448.75C360.496 442.019 344.042 430.8 332.075 415.842L368.723 390.413C375.454 398.64 385.177 404.623 394.9 407.615L378.446 448.75Z" transform="matrix(-1 0 0 1 2408 1419)"/><path d="M365.731 375.454 320.856 372.463C322.352 350.773 334.319 331.327 351.521 318.613L379.194 353.765C365.731 364.983 365.731 373.21 365.731 375.454L365.731 375.454Z" transform="matrix(-1 0 0 1 2408 1419)"/><path d="M400.135 342.546 382.185 301.41C397.144 294.679 412.85 289.444 428.556 285.704L439.027 329.083C425.565 332.823 412.85 337.31 400.135 342.546L400.135 342.546Z" transform="matrix(-1 0 0 1 2408 1419)"/><path d="M466.7 323.848 459.221 279.721C478.667 276.729 495.121 274.485 505.592 273.738L509.331 318.613C501.852 319.36 485.398 320.856 466.7 323.848L466.7 323.848Z" transform="matrix(-1 0 0 1 2408 1419)"/></g></g></g><g><g><g><path d="M2192.16 1666.38C2202.97 1677.2 2202.97 1693.96 2192.16 1704.77L2146.2 1719.91 2138.09 1711.8 2153.23 1665.84C2164.58 1655.57 2181.34 1655.57 2192.16 1666.38ZM2404.62 1384.18 2134.31 1655.03 2100.25 1757.75 2203.51 1723.69 2473.82 1453.38"/><path d="M2526.8 1369.58 2488.42 1331.2C2479.77 1322.55 2466.25 1322.55 2457.6 1331.2L2419.76 1369.04 2488.42 1437.7 2526.26 1399.86C2535.45 1391.75 2535.45 1378.23 2526.8 1369.58Z"/></g></g></g></g></svg>