<svg width="1137" height="1035" xmlns="http://www.w3.org/2000/svg" xmlns:xlink="http://www.w3.org/1999/xlink" xml:space="preserve" overflow="hidden"><g transform="translate(-1002 -141)"><g><g><g><path d="M114.062 324.394C123.187 333.519 123.187 347.662 114.062 356.787L75.2812 369.562 68.4375 362.719 81.2125 323.937C90.7937 315.269 104.937 315.269 114.062 324.394ZM293.369 86.2312 65.2437 314.812 36.5 401.5 123.644 372.756 351.769 144.631" transform="matrix(1 0 0 1 1701 153)"/><path d="M396.481 73.9125 364.087 41.5187C356.787 34.2187 345.381 34.2187 338.081 41.5187L306.144 73.4562 364.087 131.4 396.025 99.4625C403.781 92.6187 403.781 81.2125 396.481 73.9125Z" transform="matrix(1 0 0 1 1701 153)"/></g></g></g><g><g><g><path d="M1420.08 749.292C1436.86 749.292 1451.2 743.315 1463.11 731.362 1475.01 719.41 1480.96 705.041 1480.96 688.256 1480.96 671.471 1474.98 657.128 1463.03 645.227 1451.08 633.326 1436.71 627.375 1419.92 627.375 1403.14 627.375 1388.8 633.352 1376.89 645.305 1364.99 657.257 1359.04 671.626 1359.04 688.411 1359.04 705.195 1365.02 719.538 1376.97 731.44 1388.92 743.341 1403.29 749.292 1420.08 749.292ZM1420 1037.54C1497.21 967.29 1554.25 903.574 1591.12 846.39 1627.98 789.205 1646.42 738.842 1646.42 695.3 1646.42 626.916 1624.56 570.923 1580.85 527.321 1537.14 483.718 1483.52 461.917 1420 461.917 1356.48 461.917 1302.86 483.718 1259.15 527.321 1215.44 570.923 1193.58 626.916 1193.58 695.3 1193.58 738.842 1212.45 789.205 1250.19 846.39 1287.92 903.574 1344.53 967.29 1420 1037.54ZM1420 1106.33C1326.53 1026.8 1256.72 952.922 1210.56 884.706 1164.41 816.491 1141.33 753.356 1141.33 695.3 1141.33 608.217 1169.35 538.84 1225.37 487.171 1281.39 435.501 1346.27 409.667 1420 409.667 1493.73 409.667 1558.61 435.501 1614.63 487.171 1670.65 538.84 1698.67 608.217 1698.67 695.3 1698.67 753.356 1675.59 816.491 1629.44 884.706 1583.28 952.922 1513.47 1026.8 1420 1106.33Z"/></g></g></g></g></svg>