<svg width="1071" height="1032" xmlns="http://www.w3.org/2000/svg" xmlns:xlink="http://www.w3.org/1999/xlink" xml:space="preserve" overflow="hidden"><defs><clipPath id="clip0"><rect x="1075" y="135" width="1071" height="1032"/></clipPath></defs><g clip-path="url(#clip0)" transform="translate(-1075 -135)"><path d="M0 164.664 41.1662 0 904.076 0 945.242 164.664Z" fill-rule="evenodd" transform="matrix(-0.897562 0.440889 0.440889 0.897562 2028.18 601.5)"/><path d="M0 145.038 36.2591 0 795.995 0 832.254 145.038Z" fill-rule="evenodd" transform="matrix(-0.897562 0.440889 0.440889 0.897562 1869.42 428.182)"/><path d="M0 138.443 34.6105 0 677.521 0 712.132 138.443Z" fill-rule="evenodd" transform="matrix(-0.897562 0.440889 0.440889 0.897562 1724.28 250.358)"/><path d="M0 116.011 29.0025 0 574.368 0 603.37 116.011Z" fill-rule="evenodd" transform="matrix(-0.897562 0.440889 0.440889 0.897562 1590.78 123.09)"/><g><g><g><path d="M1901.94 383.406C1908.81 390.281 1908.81 400.937 1901.94 407.812L1872.72 417.437 1867.56 412.281 1877.19 383.062C1884.41 376.531 1895.06 376.531 1901.94 383.406ZM2037.03 203.969 1865.16 376.187 1843.5 441.5 1909.16 419.844 2081.03 247.969"/><path d="M2114.72 194.687 2090.31 170.281C2084.81 164.781 2076.22 164.781 2070.72 170.281L2046.66 194.344 2090.31 238 2114.38 213.937C2120.22 208.781 2120.22 200.187 2114.72 194.687Z"/></g></g></g></g></svg>