<svg width="1005" height="1005" xmlns="http://www.w3.org/2000/svg" xmlns:xlink="http://www.w3.org/1999/xlink" xml:space="preserve" overflow="hidden"><g transform="translate(-2451 -381)"><rect x="2514" y="735" width="908" height="598" stroke="#000000" stroke-width="27.5" stroke-miterlimit="8" stroke-dasharray="110 82.5" fill="none"/><g><g><g><path d="M2979.73 921.894C2992.19 934.352 2992.19 953.662 2979.73 966.121L2926.78 983.562 2917.44 974.219 2934.88 921.271C2947.96 909.435 2967.27 909.435 2979.73 921.894ZM3224.54 596.731 2913.08 908.812 2873.83 1027.17 2992.81 987.923 3304.27 676.464"/><path d="M3365.31 579.912 3321.09 535.685C3311.12 525.719 3295.55 525.719 3285.58 535.685L3241.98 579.289 3321.09 658.4 3364.69 614.796C3375.28 605.452 3375.28 589.879 3365.31 579.912Z"/></g></g></g></g></svg>