<svg width="1005" height="1019" xmlns="http://www.w3.org/2000/svg" xmlns:xlink="http://www.w3.org/1999/xlink" xml:space="preserve" overflow="hidden"><g transform="translate(-1302 -867)"><g><g><g><path d="M155.729 442.894C168.187 455.352 168.187 474.662 155.729 487.121L102.781 504.562 93.4375 495.219 110.879 442.271C123.96 430.435 143.271 430.435 155.729 442.894ZM400.535 117.731 89.077 429.812 49.8333 548.166 168.81 508.923 480.269 197.465" transform="matrix(1 0 0 1.00167 1675 938)"/><path d="M541.314 100.912 497.087 56.6854C487.121 46.7187 471.548 46.7187 461.581 56.6854L417.977 100.29 497.087 179.4 540.691 135.796C551.281 126.452 551.281 110.879 541.314 100.912Z" transform="matrix(1 0 0 1.00167 1675 938)"/></g></g></g><path d="M1371 1188 1996 1872" stroke="#000000" stroke-width="27.5" stroke-miterlimit="8" stroke-dasharray="110 82.5" fill="none" fill-rule="evenodd"/></g></svg>